<?xml version="1.0" encoding="UTF-8"?>
<svg version="1.1" xmlns="http://www.w3.org/2000/svg" width="1275" height="661">
<path d="M0 0 C-1.25288267 5.69492123 -2.96140082 10.57309876 -5.625 15.75 C-6.15613403 16.78979004 -6.15613403 16.78979004 -6.69799805 17.85058594 C-20.76135877 44.86269964 -42.22494139 60.99403957 -70.19848633 71.81835938 C-82.42262605 76.26484755 -82.42262605 76.26484755 -91.015625 85.4375 C-94.86900074 95.46850987 -95.3269001 106.72424088 -96.4375 117.3125 C-99.40620334 145.52102563 -105.53181606 174.82285602 -128.45092773 193.91430664 C-152.13506683 212.62553 -181.75709411 216.44875534 -211.10546875 213.57421875 C-219.26029583 212.5804907 -227.27794851 210.96262778 -235.3046875 209.2421875 C-236.04306351 209.08522903 -236.78143951 208.92827057 -237.54219055 208.76655579 C-241.22506092 207.98206596 -244.90184299 207.17957579 -248.57202148 206.33764648 C-261.42520764 203.47417511 -276.03102455 201.15789277 -288 208 C-293.31166304 211.84384597 -297.71191335 216.70432624 -302.27734375 221.37890625 C-303.05327881 222.16765137 -303.82921387 222.95639648 -304.62866211 223.76904297 C-306.17327931 225.34435215 -307.7072691 226.93017517 -309.22875977 228.52783203 C-324.50471449 244.19383268 -345.03811594 248.01507517 -366.1875 248.3125 C-403.1300838 248.14077387 -433.29399281 231.63384998 -459 206 C-464.50397715 200.42383954 -469.23290248 194.41624434 -473.875 188.125 C-493.58795266 161.45895631 -513.84409689 156.28369705 -545.55653381 150.87922668 C-548.58503979 150.36233368 -551.61259774 149.83996782 -554.64028931 149.31832886 C-556.81706765 148.94737256 -558.99557856 148.5884618 -561.17456055 148.23071289 C-576.13621137 145.71699188 -589.51073668 142.5235835 -599 130 C-600.47027567 127.66335911 -601.66501232 125.25909387 -602.8125 122.75 C-603.13726318 122.04979736 -603.46202637 121.34959473 -603.79663086 120.62817383 C-606.98821118 113.47525689 -609.54767129 106.10035326 -612.0625 98.6875 C-612.46895752 97.5005957 -612.87541504 96.31369141 -613.29418945 95.09082031 C-613.6624585 93.9715918 -614.03072754 92.85236328 -614.41015625 91.69921875 C-614.74152588 90.69721436 -615.07289551 89.69520996 -615.41430664 88.6628418 C-616.00842246 85.96170747 -615.93536958 84.56531298 -615 82 C-610.16330976 83.45369911 -607.1937302 86.41584001 -603.6875 89.875 C-545.02071575 145.80910199 -447.34648286 145.64304679 -371.25 149.375 C-370.402099 149.41878784 -369.554198 149.46257568 -368.68060303 149.50769043 C-353.17106896 150.28349134 -336.8819378 150.93221865 -321.75 146.9375 C-320.98171875 146.75123047 -320.2134375 146.56496094 -319.421875 146.37304688 C-317.61056394 145.9315398 -315.80450201 145.4685603 -314 145 C-314 145.66 -314 146.32 -314 147 C-337.11774133 164.21955048 -368.89117153 171.28544024 -397 174 C-349.23310556 179.73407522 -309.49743722 171.15235902 -266.99853516 149.03613281 C-264.87430488 147.93483385 -262.74027387 146.85408096 -260.60546875 145.7734375 C-243.44038672 137.00126216 -226.82771582 127.00783959 -211 116 C-210.36964844 115.56510254 -209.73929687 115.13020508 -209.08984375 114.68212891 C-193.17547732 103.68708649 -178.26932941 91.72973116 -163.63671875 79.09765625 C-160.10426441 76.04957519 -156.55624151 73.02027981 -153 70 C-152.3615918 69.45520996 -151.72318359 68.91041992 -151.06542969 68.34912109 C-130.40719083 50.80439579 -108.4041049 40.75060577 -82.10647583 34.54760742 C-70.42080068 31.77418532 -59.02018016 28.86509626 -48 24 C-47.33081543 23.71189453 -46.66163086 23.42378906 -45.97216797 23.12695312 C-33.77645381 17.84316765 -22.70147883 11.18893964 -11.6953125 3.7734375 C-10.23738281 2.80277344 -10.23738281 2.80277344 -8.75 1.8125 C-7.91984375 1.24144531 -7.0896875 0.67039062 -6.234375 0.08203125 C-3.56532268 -1.21049933 -2.74225325 -0.83671113 0 0 Z " fill="#397267" transform="translate(646,413)"/>
<path d="M0 0 C8.85040788 7.45002689 16.83093875 16.98862017 17.92578125 28.90625 C18.28989312 43.16410412 12.8161208 55.13381241 3.125 65.4375 C-5.35815774 73.53853352 -15.13226428 78.90689714 -26.3125 82.3125 C-0.01061464 91.73969905 24.6287173 94.43750474 52.5625 92.5625 C53.83391846 92.47887207 55.10533691 92.39524414 56.4152832 92.30908203 C67.62151764 91.52886684 78.74095293 90.18395858 89.86474609 88.63378906 C110.92543563 85.77306117 110.92543563 85.77306117 117.25 90.25 C118.15878906 90.89066406 119.06757813 91.53132813 120.00390625 92.19140625 C123.53412906 94.98166969 126.87169644 97.92582559 130.16015625 100.99609375 C132.73811703 103.35889242 135.40033506 105.55867373 138.125 107.75 C142.90754987 111.61774427 147.43813064 115.70110907 151.9609375 119.8671875 C154.5136621 122.1565938 157.12847854 124.30487872 159.8125 126.4375 C165.03040594 130.64671191 169.92658686 135.16125133 174.8125 139.75 C175.57191895 140.4610791 176.33133789 141.1721582 177.11376953 141.90478516 C178.1750708 142.90904541 178.1750708 142.90904541 179.2578125 143.93359375 C179.89477051 144.5361499 180.53172852 145.13870605 181.18798828 145.75952148 C184.02339138 148.69602411 184.15098285 151.55206163 184.09423828 155.56494141 C183.24127608 161.32678813 180.25325201 166.36843879 177.625 171.5 C176.99169478 172.76769983 176.3599706 174.03619058 175.72973633 175.30541992 C174.40693414 177.9621591 173.07375588 180.61331286 171.73242188 183.26074219 C169.70505986 187.26694279 167.71680534 191.29173481 165.734375 195.3203125 C148.27614057 230.72385943 148.27614057 230.72385943 143.6875 235.3125 C140.31225241 236.01399324 136.94883748 236.57086337 133.54101562 237.08007812 C129.40085858 237.74362006 129.40085858 237.74362006 125.7890625 239.7421875 C124.29869735 241.86675058 122.96813649 244.05614047 121.6875 246.3125 C117.8125 245.4375 117.8125 245.4375 116.6875 244.3125 C116.30249398 241.03994879 116.03032744 238.44048275 117.734375 235.515625 C119.0625 233.875 119.0625 233.875 121.6875 231.3125 C122.3475 231.3125 123.0075 231.3125 123.6875 231.3125 C124.0175 229.9925 124.3475 228.6725 124.6875 227.3125 C126.9975 226.9825 129.3075 226.6525 131.6875 226.3125 C131.6875 227.3025 131.6875 228.2925 131.6875 229.3125 C132.3475 229.3125 133.0075 229.3125 133.6875 229.3125 C134.1218335 228.4316272 134.1218335 228.4316272 134.56494141 227.53295898 C135.54896776 225.58652148 136.57951905 223.68571504 137.6484375 221.78515625 C143.12637523 211.84682586 147.81101606 201.67370472 152.125 191.1875 C152.38166443 190.56561798 152.63832886 189.94373596 152.902771 189.30300903 C159.21273613 176.23916284 159.21273613 176.23916284 160.6875 162.3125 C156.86374247 156.15936966 151.72108375 151.05181707 146.61328125 145.97265625 C145.46656197 144.82306679 145.46656197 144.82306679 144.29667664 143.6502533 C142.68632454 142.03854764 141.07347382 140.429335 139.45825195 138.82250977 C137.01738933 136.39231334 134.58732986 133.9516863 132.15820312 131.50976562 C118.26137107 115.67385346 118.26137107 115.67385346 100.25390625 107 C94.21982696 107.16703334 88.44182461 108.81722244 82.625 110.3125 C81.39724854 110.62501709 80.16949707 110.93753418 78.90454102 111.25952148 C55.31894292 117.37629997 55.31894292 117.37629997 33.6875 128.3125 C32.73875 128.910625 31.79 129.50875 30.8125 130.125 C23.47626888 137.67700262 21.7885839 147.21476283 21.4375 157.4375 C21.74364086 162.18268331 22.62542472 166.68488629 23.6875 171.3125 C24.66589844 171.44205078 24.66589844 171.44205078 25.6640625 171.57421875 C31.83367438 172.56608851 35.25816275 173.88316275 39.6875 178.3125 C41.89975296 174.86913452 43.33762046 171.64685126 44.5625 167.75 C46.13023997 163.28704676 47.42460502 160.71720999 51.6875 158.3125 C58.18438139 156.14687287 64.73283455 156.47695565 70.9375 159.375 C76.48213224 162.49164838 81.0482614 166.31910777 84.125 171.9375 C84.72709225 174.47966727 84.83626981 176.70902824 84.6875 179.3125 C85.25597656 179.32667969 85.82445312 179.34085938 86.41015625 179.35546875 C92.42437461 179.72696471 96.48409753 180.87771757 100.6875 185.3125 C105.37691918 191.72762544 109.1875 197.43426414 109.1875 205.6171875 C108.16695586 211.11855826 104.73890202 215.7120444 101.6875 220.3125 C102.26757812 220.49425781 102.84765625 220.67601562 103.4453125 220.86328125 C113.0675905 223.95955882 113.0675905 223.95955882 116.6875 226.3125 C117.34375 228.9140625 117.34375 228.9140625 117.6875 231.3125 C89.95050001 255.70491371 33.8432057 284.0142803 -4.3125 282.3125 C-12.58509494 280.39337428 -18.25795081 275.84816941 -23.2109375 269.1171875 C-25.54992902 263.16188284 -24.95809558 257.29125926 -22.59765625 251.42578125 C-21.87503247 249.81719197 -21.13392027 248.21678661 -20.375 246.625 C-17.81522854 241.12082822 -15.82564956 236.39698766 -15.3125 230.3125 C-16.17875 229.961875 -17.045 229.61125 -17.9375 229.25 C-22.0480564 226.89023614 -24.85838615 224.38314619 -27.3125 220.3125 C-28 216.6875 -28 216.6875 -27.3125 213.3125 C-23.80349564 208.44517137 -18.84707125 206.25884235 -13.3125 204.3125 C-12.6525 204.3125 -11.9925 204.3125 -11.3125 204.3125 C-11.3125 203.6525 -11.3125 202.9925 -11.3125 202.3125 C-12.17875 202.126875 -13.045 201.94125 -13.9375 201.75 C-18.34755024 199.87164527 -20.82012094 197.38395484 -23.3125 193.3125 C-24.09588363 189.47392021 -23.56085555 187.83080724 -21.875 184.3125 C-19.01550785 180.96480187 -16.12742384 179.07520552 -12.3359375 176.90234375 C-9.26706815 174.49108926 -8.54148322 171.84349247 -7.9765625 168.06640625 C-7.87814418 162.5451385 -8.74266446 159.72782291 -12.3125 155.3125 C-13.40243264 153.90090431 -14.48552429 152.48400585 -15.5625 151.0625 C-16.08328125 150.39734375 -16.6040625 149.7321875 -17.140625 149.046875 C-18.3125 147.3125 -18.3125 147.3125 -18.3125 145.3125 C-19.446875 145.003125 -20.58125 144.69375 -21.75 144.375 C-25.3125 143.3125 -25.3125 143.3125 -26.3125 142.3125 C-26.70004557 135.46586168 -25.56664271 129.03112168 -24.3125 122.3125 C-35.63289892 121.90112615 -46.25571707 122.75072436 -57.3125 125.3125 C-59.14711333 127.14711333 -58.48098784 129.7071341 -58.50584412 132.15008545 C-58.49720667 143.25090752 -57.59897506 154.05186463 -56.25 165.0625 C-56.02951946 166.9348072 -55.80981603 168.80720605 -55.59082031 170.6796875 C-54.28986466 181.69736008 -52.88387892 192.7011441 -51.45703125 203.703125 C-51.22154823 205.5257486 -51.22154823 205.5257486 -50.98130798 207.38519287 C-50.2118257 213.33498613 -49.43346047 219.28331875 -48.63647461 225.22949219 C-42.79933749 269.3929882 -42.79933749 269.3929882 -51.64453125 281.34765625 C-57.34365069 288.06113887 -64.3137764 289.83883767 -72.47265625 292.19921875 C-75.78501509 293.15956694 -79.04957437 294.1977095 -82.3125 295.3125 C-82.64085126 291.782724 -82.59115916 289.80015353 -80.8125 286.6875 C-75.79954308 281.92519093 -69.64170405 279.93165041 -63.09765625 278.0234375 C-61.10948974 277.46105587 -61.10948974 277.46105587 -60.3125 275.3125 C-59.87721692 269.09439108 -61.20211871 263.49855862 -62.61328125 257.46484375 C-63.10097142 255.30925836 -63.5885995 253.15365892 -64.07617188 250.99804688 C-64.84342623 247.6480186 -65.61375724 244.29872345 -66.38647461 240.94995117 C-74.00073711 207.8263029 -76.37760082 175.24563152 -76.4375 141.3125 C-76.4400882 140.64094879 -76.44267639 139.96939758 -76.44534302 139.27749634 C-76.51301123 117.11326684 -76.51301123 117.11326684 -73.3125 112.3125 C-64.70513865 109.19470963 -54.32787995 109.12442258 -45.23413086 108.0625 C-43.16689533 107.81949126 -41.10104646 107.56665674 -39.03515625 107.3125 C-37.20609741 107.0959375 -37.20609741 107.0959375 -35.34008789 106.875 C-32.14872102 106.48742215 -32.14872102 106.48742215 -29.3125 104.3125 C-31.53937976 103.01675129 -33.76883175 101.72582692 -36 100.4375 C-36.62583984 100.07269531 -37.25167969 99.70789063 -37.89648438 99.33203125 C-43.73863184 95.96744371 -49.36293762 92.76684181 -56.3125 94.3125 C-60.21700226 96.31377368 -63.74236494 98.77113424 -67.3125 101.3125 C-68.89068916 102.42400683 -70.47365549 103.52877849 -72.0625 104.625 C-72.71734375 105.09550781 -73.3721875 105.56601562 -74.046875 106.05078125 C-83.83567159 111.50212832 -97.5677639 110.19022087 -108.3125 108.3125 C-111.125 107.3125 -111.125 107.3125 -113.3125 106.3125 C-116.1163482 105.6449171 -118.42127654 105.3125 -121.3125 105.3125 C-122.116875 105.993125 -122.92125 106.67375 -123.75 107.375 C-126.3125 109.3125 -126.3125 109.3125 -128.5625 109.125 C-130.3125 108.3125 -130.3125 108.3125 -131.3125 107.3125 C-131.75032063 99.87973112 -131.47696389 92.66266214 -130.3125 85.3125 C-129.32568673 78.78171498 -129.22702447 72.47435592 -129.3125 65.875 C-129.43801121 55.73768427 -129.55387182 45.03661545 -126.3125 35.3125 C-122.3525 35.6425 -118.3925 35.9725 -114.3125 36.3125 C-113.6525 34.6625 -112.9925 33.0125 -112.3125 31.3125 C-106.45867237 21.63690593 -97.67090016 15.66622548 -86.87109375 12.625 C-76.25135593 10.23181965 -64.25166307 10.34291846 -54.3125 15.3125 C-54.10625 14.136875 -53.9 12.96125 -53.6875 11.75 C-51.96572388 5.02913599 -47.8559553 1.00128796 -42 -2.5 C-28.87371945 -9.16175173 -12.20621734 -8.59221966 0 0 Z M-34.3125 12.3125 C-34.92770696 14.59676391 -34.92770696 14.59676391 -35.3125 17.25 C-36.09294597 22.09294597 -36.09294597 22.09294597 -38.3125 24.3125 C-39.62997324 25.00998583 -40.96164193 25.68209957 -42.3125 26.3125 C-37.65843926 30.21184818 -34.57413923 31.68502415 -28.37890625 31.59375 C-24.9178914 31.1226856 -22.88860372 29.58192471 -20.3125 27.3125 C-18.3707678 24.18884385 -18.30766031 22.4504311 -18.4375 18.75 C-19.42942901 14.85313603 -19.90200297 13.44406064 -23.3125 11.3125 C-27.09795073 10.84100258 -30.85053482 10.58151741 -34.3125 12.3125 Z M14.9375 207.625 C13.82659206 208.82930285 12.73911867 210.05609243 11.6875 211.3125 C11.23890625 211.83585937 10.7903125 212.35921875 10.328125 212.8984375 C6.42871622 218.37363476 7.33934426 224.88128975 7.6875 231.3125 C8.0175 231.3125 8.3475 231.3125 8.6875 231.3125 C8.79964844 230.4771875 8.79964844 230.4771875 8.9140625 229.625 C9.04554688 228.861875 9.17703125 228.09875 9.3125 227.3125 C9.42851562 226.57 9.54453125 225.8275 9.6640625 225.0625 C13.05277855 215.95694236 21.57687618 209.30278121 28.40625 202.75976562 C29.18484375 201.99986328 29.9634375 201.23996094 30.765625 200.45703125 C31.47106445 199.78003174 32.17650391 199.10303223 32.90332031 198.40551758 C34.83157649 196.14348417 35.74379175 194.11401942 36.6875 191.3125 C30.67958825 191.3125 19.12074123 203.58518418 14.9375 207.625 Z " fill="#2F4E33" transform="translate(335.3125,248.6875)"/>
<path d="M0 0 C3.77550705 -0.00217706 7.55071655 -0.02037034 11.32617188 -0.03930664 C53.90257279 -0.13768569 97.7241584 4.30152417 130.12695312 35.00170898 C137.01302317 41.88777903 142.52360424 48.0864973 143.81054688 58.06030273 C143.31054688 61.18530273 143.31054688 61.18530273 141.81054688 63.06030273 C135.79808977 65.76590843 128.60707207 65.31754559 122.12451172 65.47509766 C100.71464711 66.01537551 83.45245232 70.95348538 64.12304688 79.81030273 C41.83839738 89.9619429 20.58736281 91.7697446 -3.68945312 91.18530273 C-3.05007812 92.11342773 -2.41070312 93.04155273 -1.75195312 93.99780273 C2.15905778 100.04209231 2.18969928 106.00338857 0.73242188 112.93530273 C-2.59396502 123.57974081 -9.97529248 131.03673209 -19.68945312 136.18530273 C-22.61916053 137.42582718 -25.59234422 138.42204544 -28.62695312 139.37280273 C-29.7474707 139.74308594 -29.7474707 139.74308594 -30.890625 140.12084961 C-43.1908482 144.10064573 -54.85687308 145.3535668 -67.75195312 145.24780273 C-68.80833984 145.24329102 -69.86472656 145.2387793 -70.953125 145.23413086 C-73.53196221 145.22246191 -76.11067606 145.20609159 -78.68945312 145.18530273 C-78.06198042 146.45554314 -77.43272586 147.72490342 -76.80273438 148.99389648 C-76.45251221 149.7008667 -76.10229004 150.40783691 -75.74145508 151.13623047 C-74.84939251 152.87377541 -73.87173885 154.56695788 -72.87695312 156.24780273 C-71.30814149 160.12854731 -71.45594359 162.19453659 -72.68945312 166.18530273 C-82.64333151 177.44890196 -103.28502469 178.27806557 -117.31054688 180.32666016 C-141.92051784 183.94186489 -159.92911518 198.10191107 -174.96679688 217.63061523 C-181.05516035 226.65961685 -183.3377967 236.71451964 -185.68945312 247.18530273 C-186.01945312 247.18530273 -186.34945312 247.18530273 -186.68945312 247.18530273 C-186.08444836 240.57397638 -185.28834944 234.02279075 -184.27148438 227.46264648 C-184.13393234 226.5674379 -183.99638031 225.67222931 -183.85466003 224.74989319 C-178.86892086 192.54859284 -173.44194878 161.1145155 -157.68945312 132.18530273 C-157.13644531 131.14116211 -156.5834375 130.09702148 -156.01367188 129.02124023 C-136.03583773 92.87995556 -102.86894632 71.43114008 -64.01708984 60.11254883 C-32.87811283 51.43567174 -1.87901176 48.56589329 30.31054688 47.18530273 C-21.49926031 36.70280015 -72.64193698 41.8482162 -117.82617188 71.47436523 C-124.2258045 75.84822646 -129.99918708 80.93865851 -135.68945312 86.18530273 C-136.43582031 86.86077148 -137.1821875 87.53624023 -137.95117188 88.23217773 C-156.25880678 105.61143359 -169.97417021 129.21399656 -180.20288086 152.05444336 C-182.50576518 157.10424642 -184.80007672 161.19323652 -188.68945312 165.18530273 C-191.25195312 165.87280273 -191.25195312 165.87280273 -193.68945312 165.18530273 C-199.57069045 160.19516197 -201.40047847 150.53028281 -202.68945312 143.18530273 C-204.8824575 112.19890709 -195.19984558 85.04208651 -175.18945312 61.31030273 C-173.38616145 59.24020551 -171.54686711 57.20684755 -169.68945312 55.18530273 C-168.90054688 54.31389648 -168.11164063 53.44249023 -167.29882812 52.54467773 C-156.85478845 41.54731145 -144.09806244 33.13766326 -130.68945312 26.18530273 C-130.00463867 25.82726562 -129.31982422 25.46922852 -128.61425781 25.1003418 C-88.40359528 4.35631768 -44.52625632 -0.00286158 0 0 Z " fill="#9EBB1E" transform="translate(202.689453125,154.814697265625)"/>
<path d="M0 0 C0.73605469 0.66386719 1.47210938 1.32773437 2.23046875 2.01171875 C3.13345703 2.77548828 3.13345703 2.77548828 4.0546875 3.5546875 C23.86442617 21.51736429 30.99226476 51.42068753 33.23046875 77.01171875 C33.31514404 77.82866211 33.39981934 78.64560547 33.48706055 79.48730469 C34.4510846 89.86962956 34.41656841 100.25723666 34.41577148 110.67626953 C34.41795926 113.87285665 34.43617684 117.06909854 34.45507812 120.265625 C34.55415945 155.51119849 34.55415945 155.51119849 25.2890625 165 C16.28691998 172.52057345 4.33566798 177.64095166 -7.5390625 177.26171875 C-17.51978367 176.14303897 -25.99336864 173.19252962 -33.01953125 165.88671875 C-38.46365363 158.9997552 -40.46805314 150.92326894 -40.1640625 142.25390625 C-39.17244495 134.10496999 -36.48265383 126.33156852 -34.08203125 118.51171875 C-30.40721978 106.36886345 -30.48857846 93.49619107 -36.28125 82.015625 C-41.83956372 72.81005824 -48.15425773 66.70334081 -58.76953125 64.01171875 C-68.45656303 62.7723857 -75.83340552 64.7651991 -83.51953125 70.69921875 C-87.3397748 74.1729751 -89.54242663 78.41026292 -91.76953125 83.01171875 C-92.09953125 83.67171875 -92.42953125 84.33171875 -92.76953125 85.01171875 C-93.96962501 94.33902971 -92.01832208 101.27401754 -86.76953125 109.01171875 C-84.14374859 112.22033409 -81.27726288 115.19205734 -78.40234375 118.17578125 C-71.44564597 125.66919756 -68.38929798 131.69729169 -68.48828125 141.9296875 C-69.00788748 147.62370581 -71.19918092 151.31050589 -75.01953125 155.44921875 C-81.86944942 159.34121771 -89.15367475 157.77923152 -96.51953125 156.38671875 C-97.5237915 156.20286621 -98.52805176 156.01901367 -99.56274414 155.82958984 C-124.74517162 151.09165379 -153.13346244 145.31361489 -168.64453125 122.82421875 C-177.79228014 107.14545293 -178.05259128 88.33631259 -173.60864258 71.05249023 C-165.80655656 43.37075502 -150.39422133 20.13944164 -125.109375 5.90625 C-91.72046335 -12.05848296 -32.10578249 -27.61403549 0 0 Z " fill="#437E74" transform="translate(193.76953125,354.98828125)"/>
<path d="M0 0 C4.97326962 2.08183379 6.70845465 7.26534592 9.125 11.85546875 C16.74076976 26.23420071 26.44013713 32.89979734 41.89599609 37.92602539 C56.95663153 42.49404342 72.58921407 45.1572745 88.1015625 47.6953125 C88.89871674 47.82597107 89.69587097 47.95662964 90.5171814 48.09124756 C94.41438532 48.72669824 98.31312919 49.34765578 102.21630859 49.9453125 C123.41929334 53.25765725 142.32348441 60.41767935 155.6875 78.125 C158.94996352 83.07131566 159.49830869 87.3550591 158.6875 93.125 C155.94011778 103.45515714 149.60258051 114.25237923 143.6875 123.125 C144.22117187 122.75213867 144.75484375 122.37927734 145.3046875 121.99511719 C147.76187197 120.28295275 150.22461427 118.57895205 152.6875 116.875 C153.52667969 116.28847656 154.36585938 115.70195312 155.23046875 115.09765625 C169.58842802 105.19177737 169.58842802 105.19177737 178.23828125 105.62890625 C184.97883083 106.99421693 188.72230799 111.81771763 192.375 117.3125 C200.05447506 130.25740102 205.41880043 143.81873027 203.6875 159.125 C201.00992906 169.48464945 193.44585963 176.23184244 184.546875 181.53515625 C172.03031633 188.49449966 158.87641075 191.86231449 144.84375 194.38671875 C127.24876032 197.57540182 111.55063273 202.47276397 94.92285156 208.90527344 C90.57838363 210.54313654 86.20064041 211.99328764 81.75 213.3125 C80.52410156 213.67730469 79.29820312 214.04210937 78.03515625 214.41796875 C74.47857223 215.16912593 71.31232662 215.32915169 67.6875 215.125 C67.3575 214.795 67.0275 214.465 66.6875 214.125 C66.8984659 207.76356663 69.32182148 204.13175433 73.0625 199.125 C79.47534964 190.89962431 79.47534964 190.89962431 81.5859375 181.01171875 C78.78273634 172.00491154 70.88280526 165.07625634 64.2890625 158.69140625 C62.06253265 156.49496464 60.01503303 154.26267612 58 151.875 C55.87666672 149.38329574 53.7081281 147.20916814 51.19921875 145.109375 C45.03121288 139.77985565 39.39915454 133.89388181 33.67822266 128.09521484 C28.41147205 122.7634215 23.13051297 117.53361392 17.43017578 112.65869141 C14.73398833 110.28583492 12.29409474 107.71332224 9.875 105.0625 C9.41158203 104.57201172 8.94816406 104.08152344 8.47070312 103.57617188 C3.29804501 97.94470861 1.09230822 93.16605474 1.33203125 85.59765625 C1.90526 81.61025186 3.26821558 79.35071256 5.6875 76.125 C10.14796059 73.32074418 14.58615729 73.55571973 19.6875 74.125 C31.92283067 77.11362995 42.71709181 86.37706219 52.6875 93.6875 C73.20459271 108.87249982 73.20459271 108.87249982 97.6875 112.125 C103.78617625 110.41980664 110.41649348 107.95833016 113.7890625 102.265625 C115.59363687 97.96603042 115.37675337 93.39912338 114.03515625 88.97265625 C110.28672443 80.59096964 103.62038805 76.44419155 95.26953125 73.2109375 C87.90653384 70.9787529 80.29690356 70.13262024 72.6875 69.125 C42.84585579 65.1440149 42.84585579 65.1440149 29.6875 60.125 C28.49382812 59.69574219 27.30015625 59.26648438 26.0703125 58.82421875 C12.3210741 53.48397845 1.44618316 45.3097348 -5.39453125 32.0234375 C-8.67337286 24.02845384 -8.83912866 13.42521688 -5.9375 5.3125 C-3.32067439 0.17949591 -3.32067439 0.17949591 0 0 Z " fill="#55853B" transform="translate(447.3125,219.875)"/>
<path d="M0 0 C17.72323579 14.26889811 28.80768815 32.94708316 31.75 55.75 C31.85783553 57.1650125 31.94070699 58.58212369 32 60 C32.03996094 60.81210938 32.07992187 61.62421875 32.12109375 62.4609375 C32.67373217 84.63149071 25.7736831 104.42126163 11 121 C10.33484375 121.75925781 9.6696875 122.51851562 8.984375 123.30078125 C-5.59988851 138.93835268 -25.13726097 145.84513843 -46.10546875 147.12890625 C-65.87331546 147.68522464 -85.4254407 141.68311878 -100.3125 128.5 C-101.88232434 127.00766699 -103.44550536 125.50829462 -105 124 C-105.61359375 123.45988281 -106.2271875 122.91976562 -106.859375 122.36328125 C-119.97099062 110.42449363 -128.1379858 91.16130854 -129.1328125 73.6640625 C-130.16761232 50.41555978 -125.588671 29.90641105 -110 12 C-109.55527344 11.41347656 -109.11054687 10.82695312 -108.65234375 10.22265625 C-97.31626157 -4.35230655 -78.38003881 -12.50346548 -60.625 -15.5859375 C-38.69953605 -18.09035472 -17.6997814 -13.58301227 0 0 Z M-68 17 C-69.34964844 17.60328125 -69.34964844 17.60328125 -70.7265625 18.21875 C-83.55172916 24.57833677 -91.63943948 34.80251952 -96.3125 48.1875 C-100.38228759 61.42697497 -100.41682266 76.22185556 -94.1796875 88.85546875 C-86.70569849 102.44228984 -76.21977271 111.66160137 -61.1796875 116.13671875 C-48.86963372 119.01509468 -35.50354091 117.81208129 -24.48046875 111.57421875 C-22.23914909 110.13575986 -20.11760524 108.6136152 -18 107 C-16.96875 106.2575 -15.9375 105.515 -14.875 104.75 C-6.88926251 97.11146848 0.47501714 85.31646995 1.11352539 73.98535156 C1.10828857 73.2940918 1.10305176 72.60283203 1.09765625 71.890625 C1.09443359 71.13652344 1.09121094 70.38242188 1.08789062 69.60546875 C1.07951172 68.82816406 1.07113281 68.05085938 1.0625 67.25 C1.05798828 66.45722656 1.05347656 65.66445312 1.04882812 64.84765625 C1.03708565 62.89840492 1.01915146 60.94919262 1 59 C0.67 59 0.34 59 0 59 C-0.23074219 60.19496094 -0.46148438 61.38992187 -0.69921875 62.62109375 C-4.07718821 79.38583109 -4.07718821 79.38583109 -9 86 C-9.75410156 87.03833984 -9.75410156 87.03833984 -10.5234375 88.09765625 C-17.05791715 96.3041037 -26.86809388 102.01612521 -37.35888672 103.28540039 C-39.74674475 103.39977844 -42.10986438 103.41009171 -44.5 103.375 C-45.29019531 103.38660156 -46.08039063 103.39820313 -46.89453125 103.41015625 C-55.78628344 103.36649789 -62.88385177 101.07116453 -69.3359375 94.86328125 C-74.57304676 88.99919412 -74.52970172 83.06452793 -74.3515625 75.453125 C-73.72905852 69.33875256 -71.90926262 64.95950637 -67.625 60.5625 C-61.64842768 57.00501647 -56.70556749 56.34163385 -50 58 C-45.64447665 60.25841951 -42.87430945 62.41835467 -41 67 C-40.46796212 71.30697331 -40.52176267 74.282644 -43 78 C-39.98386742 79.32709834 -38.76951997 78.92457017 -35.5625 77.875 C-28.81906729 74.69060122 -24.33710723 68.58259841 -21.76953125 61.703125 C-18.78791274 50.94495864 -17.69208629 41.13621251 -18 30 C-18 28.72125 -18 27.4425 -18 26.125 C-19.28618588 22.10566913 -20.81164255 21.07996281 -24.4609375 19.1328125 C-37.85164297 13.15849775 -54.1852927 10.77630934 -68 17 Z " fill="#2F655B" transform="translate(956,140)"/>
<path d="M0 0 C80.92758621 0 80.92758621 0 102 21 C102.62648438 21.60328125 103.25296875 22.2065625 103.8984375 22.828125 C112.7636069 32.05431939 118.04488391 44.72849162 121 57 C121.22429687 57.90363281 121.44859375 58.80726563 121.6796875 59.73828125 C126.25523422 81.89520957 123.22147259 107.20751333 110.72167969 126.31518555 C100.68401383 140.904472 87.34559086 150.25539603 69.8125 153.60546875 C46.76270486 156.83884279 23.27547559 155 0 155 C0 103.85 0 52.7 0 0 Z M30 29 C30 37.58 30 46.16 30 55 C31.65 53.35 33.3 51.7 35 50 C44.69318177 42.86593259 52.94828597 40.01009389 65 41 C71.55268337 42.20520761 76.5923966 44.98321565 81 50 C85.42438387 56.8506589 85.0671343 65.68914556 83.49609375 73.5078125 C81.99184984 78.02913992 79.67019145 81.02889263 76 84 C72.24489379 85.82628886 69.16112372 86.29657733 65 86.3125 C63.989375 86.32925781 62.97875 86.34601563 61.9375 86.36328125 C58.57345873 85.94724955 56.71621139 84.99509332 54 83 C51.71293181 79.07931168 51.66880746 75.47109928 52 71 C52.66 70.01 53.32 69.02 54 68 C48.55652693 69.70685172 47.04201191 72.34047861 44.35546875 77.16796875 C38.83673094 88.69847282 37.475932 102.01004755 41.03125 114.2890625 C42.38374204 118.07385876 44.04280984 121.49055557 46 125 C57.17598255 125.48669601 68.29737975 125.27971847 77.1953125 117.7109375 C77.79085938 117.14632812 78.38640625 116.58171875 79 116 C79.61617187 115.43539062 80.23234375 114.87078125 80.8671875 114.2890625 C91.04538721 103.93612975 92.26226919 90.17479016 92.24658203 76.44628906 C92.10448269 64.62284553 89.81756669 55.75436465 83 46 C82.2575 44.9275 81.515 43.855 80.75 42.75 C70.41176139 32.41176139 57.02537757 30.04575184 43 29 C38.71 29 34.42 29 30 29 Z " fill="#285C53" transform="translate(976,296)"/>
<path d="M0 0 C10.45208601 1.72659828 18.69353662 7.79295451 26.6484375 14.4375 C27.30585938 14.98019531 27.96328125 15.52289063 28.640625 16.08203125 C38.586068 25.13375933 46.63197871 39.55639193 47.88671875 52.98828125 C48.32146318 69.16535028 42.87987091 85.5240674 32.3359375 97.875 C19.77295709 110.77637719 4.22132448 115.93606237 -13.63378906 116.51098633 C-31.60191754 116.71541201 -48.98817962 113.30048818 -66.3515625 109.0625 C-67.17072144 108.86293701 -67.98988037 108.66337402 -68.8338623 108.45776367 C-72.08889601 107.66393124 -75.34356109 106.86859896 -78.59796143 106.07217407 C-96.30891196 101.75156935 -113.6270849 98.89791484 -131.83398438 98.06860352 C-133.04634766 98.01115967 -134.25871094 97.95371582 -135.5078125 97.89453125 C-136.58869141 97.85303955 -137.66957031 97.81154785 -138.78320312 97.76879883 C-141.3515625 97.4375 -141.3515625 97.4375 -143.3515625 95.4375 C-144.19482168 91.47418184 -143.92655602 89.49713091 -141.984375 85.91796875 C-131.88605471 71.27330924 -113.76046735 55.37682002 -96.10546875 50.86328125 C-92.55641084 50.31456166 -89.05867491 50.24682999 -85.4765625 50.25 C-84.69410156 50.24935547 -83.91164063 50.24871094 -83.10546875 50.24804688 C-76.8111962 50.30222293 -70.61202632 50.81678786 -64.3515625 51.4375 C-55.78341836 52.26215574 -47.27242902 52.68564763 -38.6640625 52.75 C-37.61412109 52.76740234 -36.56417969 52.78480469 -35.48242188 52.80273438 C-27.15600194 52.79745446 -17.87829871 52.38844255 -11.2890625 46.875 C-4.87079784 35.48775624 -6.27737933 24.9873751 -8.9296875 12.58984375 C-9.68733869 8.72441963 -9.86782436 5.74536337 -8.4140625 2.0625 C-5.69364807 -0.08085682 -3.39975973 -0.17603934 0 0 Z " fill="#72A12E" transform="translate(359.3515625,42.5625)"/>
<path d="M0 0 C61.47024952 0 61.47024952 0 76.125 14.03515625 C84.4036854 22.6638596 86.63080501 30.66701505 86.46655273 42.38647461 C85.98306128 54.19924656 81.24846793 60.71628221 73 69 C75.44038483 70.9757564 77.88339214 72.91582487 80.4296875 74.75390625 C90.52469754 82.22034339 95.40695431 90.42251163 97.56640625 102.7890625 C99.35077471 116.00303434 95.98474337 128.2938647 88 139 C78.19232812 149.67023585 70.5655955 151.87880097 56 155 C37.52 155 19.04 155 0 155 C0 103.85 0 52.7 0 0 Z M31 29 C31 39.56 31 50.12 31 61 C39.81428257 61 47.06974144 60.94022163 54 55 C57.3262142 50.23242632 57.76239773 45.63965441 57 40 C54.87286862 34.96205726 51.29440913 32.11922397 46.4375 29.75 C41.63236297 28.57366585 41.63236297 28.57366585 31 29 Z M31 88 C31 100.54 31 113.08 31 126 C48.36462974 126.92921622 48.36462974 126.92921622 63.5 120.6875 C67.11868646 116.79741205 67.83868899 113.77442112 68.3125 108.5625 C67.77617282 102.44837018 65.3992932 97.28352233 61 93 C50.95510086 87.40274851 43.07313129 88 31 88 Z " fill="#31675E" transform="translate(714,296)"/>
<path d="M0 0 C67.6792328 0 67.6792328 0 80.8125 12.1875 C90.00164688 21.92864511 93.37446223 34.43129842 93.1484375 47.5859375 C92.40208816 59.72393465 88.70814036 69.3590575 79.72827148 77.75244141 C76.85090791 80.12282253 73.93117663 81.93062246 70.69140625 83.76953125 C69.62220947 84.38030518 68.5530127 84.9910791 67.45141602 85.62036133 C66.64244873 86.07564209 65.83348145 86.53092285 65 87 C73.36798138 103.31239827 81.84743966 119.54208309 90.68505859 135.60644531 C92.72138395 139.31311702 94.74318355 143.02727594 96.75 146.75 C97.25358032 147.67208252 97.25358032 147.67208252 97.76733398 148.61279297 C100 152.76958924 100 152.76958924 100 155 C89.11 155 78.22 155 67 155 C58.90815819 140.26869825 50.97779442 125.46238598 43.14501953 110.59228516 C42.76809967 109.87770645 42.39117981 109.16312775 42.00283813 108.42689514 C41.29780755 107.09008784 40.59376575 105.75275834 39.89096069 104.41477966 C38.24243179 101.28978871 36.54630146 98.21202887 34.75585938 95.16577148 C33 92 33 92 33 90 C32.34 90 31.68 90 31 90 C31 111.45 31 132.9 31 155 C20.77 155 10.54 155 0 155 C0 103.85 0 52.7 0 0 Z M31 30 C31 39.9 31 49.8 31 60 C46.6347385 61.01494319 46.6347385 61.01494319 60.5 55 C63.82409703 50.56787063 63.60320252 45.30487694 63 40 C60.98795727 36.04777321 58.82715629 33.27237405 55 31 C52.02028497 30.07351725 49.34605957 29.88239705 46.234375 29.90234375 C45.43225586 29.90484131 44.63013672 29.90733887 43.80371094 29.90991211 C42.79598633 29.91901611 41.78826172 29.92812012 40.75 29.9375 C37.5325 29.958125 34.315 29.97875 31 30 Z " fill="#2B5F56" transform="translate(1016,128)"/>
<path d="M0 0 C67.17926829 0 67.17926829 0 80.8125 12.125 C90.51122407 22.63972249 92.62324807 35.77253328 92.30859375 49.4453125 C91.7846046 59.86856554 88.38112158 68.57377991 81 76 C76.14647882 80.33801692 70.88147085 83.2693171 65 86 C66.40724181 90.65581773 68.34459288 94.84064321 70.640625 99.109375 C70.99986053 99.78586594 71.35909607 100.46235687 71.72921753 101.15934753 C72.89851966 103.35854766 74.07431218 105.55420819 75.25 107.75 C76.05884944 109.27004108 76.86727684 110.79030681 77.67529297 112.31079102 C81.51759541 119.53185774 85.39052331 126.73560765 89.3046875 133.91796875 C89.9593199 135.12206487 90.61394259 136.32616627 91.26855469 137.53027344 C92.48456002 139.7620686 93.70635735 141.99071997 94.93457031 144.21582031 C95.47436523 145.20549805 96.01416016 146.19517578 96.5703125 147.21484375 C97.04227051 148.07198975 97.51422852 148.92913574 98.00048828 149.81225586 C99 152 99 152 99 155 C88.11 155 77.22 155 66 155 C63.7725 150.66875 61.545 146.3375 59.25 141.875 C53.08426884 129.92468708 46.75241117 118.07911119 40.25878906 106.30322266 C39.07794744 104.14262144 37.91976599 101.97203976 36.7734375 99.79296875 C36.44666016 99.17357422 36.11988281 98.55417969 35.78320312 97.91601562 C34.95279107 96.33555398 34.12842407 94.75191991 33.3046875 93.16796875 C32.18502719 90.86928102 32.18502719 90.86928102 30 90 C30 111.45 30 132.9 30 155 C20.1 155 10.2 155 0 155 C0 103.85 0 52.7 0 0 Z M30 29 C30 39.23 30 49.46 30 60 C46.01877518 61.00953283 46.01877518 61.00953283 60 54.5 C62.91697408 50.8537824 63.36321696 47.75818399 63.26953125 43.125 C62.79553456 39.38798262 61.43303336 36.83832848 59 34 C53.12227737 29.73633 47.04823715 29.35874169 40 29.25 C35.05 29.12625 35.05 29.12625 30 29 Z " fill="#265A51" transform="translate(995,471)"/>
<path d="M0 0 C10.23 0 20.46 0 31 0 C34.29657222 7.91177332 37.52448792 15.81609493 40.59765625 23.8125 C41.02466324 24.91969391 41.45167023 26.02688782 41.89161682 27.16763306 C43.28347503 30.77782162 44.673011 34.38889899 46.0625 38 C47.03989143 40.53706626 48.01777008 43.07394466 48.99560547 45.61083984 C51.99975956 53.40619202 55.00033458 61.20291965 58 69 C58.46625793 70.21192017 58.93251587 71.42384033 59.41290283 72.67248535 C60.76627218 76.19046561 62.1195025 79.70849931 63.47265625 83.2265625 C63.90659195 84.35471878 64.34052765 85.48287506 64.78761292 86.6452179 C66.89858717 92.13396949 69.00852235 97.62311666 71.11645508 103.11303711 C74.69358142 112.42653463 78.27843792 121.73650316 81.9140625 131.02734375 C82.49268903 132.50894665 83.07130287 133.9905545 83.64990234 135.47216797 C84.67838713 138.10498732 85.7132796 140.73514896 86.75244141 143.36376953 C87.18991699 144.48251465 87.62739258 145.60125977 88.078125 146.75390625 C88.45356445 147.70595947 88.82900391 148.6580127 89.21582031 149.63891602 C90 152 90 152 90 155 C79.77 155 69.54 155 59 155 C56.00329537 147.80790889 53.01645017 140.63160065 50.1875 133.375 C49.87619141 132.58738281 49.56488281 131.79976562 49.24414062 130.98828125 C47 125.23736264 47 125.23736264 47 123 C26.54 123.33 6.08 123.66 -15 124 C-18.90699821 133.82688206 -18.90699821 133.82688206 -22.80834961 143.65600586 C-23.29311768 144.87167236 -23.77788574 146.08733887 -24.27734375 147.33984375 C-24.53132935 147.98248169 -24.78531494 148.62511963 -25.04699707 149.28723145 C-26.8859282 153.8859282 -26.8859282 153.8859282 -28 155 C-30.29151417 155.08790975 -32.58572524 155.10694038 -34.87890625 155.09765625 C-35.90889992 155.09553383 -35.90889992 155.09553383 -36.95970154 155.09336853 C-39.16067801 155.08775479 -41.36155409 155.07520007 -43.5625 155.0625 C-45.05143083 155.05748676 -46.54036324 155.05292355 -48.02929688 155.04882812 C-51.68623075 155.03778093 -55.34310558 155.02050713 -59 155 C-58.26366848 150.1461609 -56.50435506 145.78531154 -54.73828125 141.234375 C-54.40032028 140.35404099 -54.06235931 139.47370697 -53.7141571 138.56669617 C-52.58416014 135.62628475 -51.44837736 132.68814434 -50.3125 129.75 C-49.50684528 127.65775519 -48.70151391 125.56538584 -47.89648438 123.47290039 C-46.17121445 118.99092038 -44.44328451 114.50997794 -42.71337891 110.02978516 C-40.44383634 104.15175286 -38.17905709 98.27189996 -35.91590881 92.3914032 C-24.04706332 61.55366877 -12.07622299 30.75709633 0 0 Z M15 44 C12.29172838 50.81668391 9.58609233 57.63440944 6.88232422 64.45288086 C5.96138836 66.77441344 5.03983964 69.09570299 4.11767578 71.41674805 C2.79560376 74.74464898 1.47570713 78.07340534 0.15625 81.40234375 C-0.25935181 82.44712387 -0.67495361 83.49190399 -1.10314941 84.56834412 C-1.4835437 85.52926468 -1.86393799 86.49018524 -2.25585938 87.48022461 C-2.59339233 88.33071884 -2.93092529 89.18121307 -3.27868652 90.05747986 C-4.05801738 91.81088945 -4.05801738 91.81088945 -4 93 C8.87 93 21.74 93 35 93 C33.02685877 86.42286256 31.00455171 80.10388577 28.49609375 73.74609375 C28.17214127 72.91916519 27.84818878 72.09223663 27.51441956 71.24024963 C26.83665939 69.514404 26.15678592 67.78938687 25.47485352 66.06518555 C24.42889655 63.41570689 23.39488583 60.76175823 22.36132812 58.10742188 C21.69863331 56.42419684 21.03524729 54.74124374 20.37109375 53.05859375 C20.06272079 52.26392197 19.75434784 51.46925018 19.43663025 50.65049744 C18.09449794 46.60446882 18.09449794 46.60446882 15 44 Z " fill="#295D54" transform="translate(881,471)"/>
<path d="M0 0 C10.23 0 20.46 0 31 0 C34.17683021 6.98902646 37.19294026 13.84299844 39.87109375 21.0078125 C40.22586288 21.94692474 40.58063202 22.88603699 40.94615173 23.85360718 C41.71216658 25.88189936 42.47663287 27.91077694 43.23968506 29.94018555 C45.32968477 35.49718859 47.4326249 41.04929123 49.53515625 46.6015625 C49.97657959 47.76782166 50.41800293 48.93408081 50.87280273 50.13568115 C55.51680194 62.39077181 60.23373642 74.61745494 64.96017456 86.84094238 C66.36697303 90.47924045 67.77264618 94.11797134 69.17797852 97.75683594 C74.20168722 110.76443156 74.20168722 110.76443156 79.234375 123.76855469 C80.83730193 127.90618727 82.43592625 132.04545088 84.03057861 136.1862793 C84.5866419 137.62758248 85.14449877 139.06819519 85.70428467 140.50805664 C86.45062664 142.42809128 87.19037994 144.35068331 87.9296875 146.2734375 C88.33429199 147.31935059 88.73889648 148.36526367 89.15576172 149.44287109 C90 152 90 152 90 155 C79.77 155 69.54 155 59 155 C56.00329537 147.80790889 53.01645017 140.63160065 50.1875 133.375 C49.87619141 132.58738281 49.56488281 131.79976562 49.24414062 130.98828125 C47 125.23736264 47 125.23736264 47 123 C26.54 123.33 6.08 123.66 -15 124 C-18.96 134.23 -22.92 144.46 -27 155 C-37.56 155 -48.12 155 -59 155 C-55.62512803 143.75042677 -55.62512803 143.75042677 -53.98901367 139.53686523 C-53.43392876 138.09894371 -53.43392876 138.09894371 -52.86763 136.63197327 C-52.47174179 135.61775803 -52.07585358 134.60354279 -51.66796875 133.55859375 C-51.24360031 132.46224106 -50.81923187 131.36588837 -50.38200378 130.23631287 C-48.9873032 126.63535361 -47.58738374 123.03644709 -46.1875 119.4375 C-45.2050506 116.90478541 -44.22381649 114.37160071 -43.24267578 111.83837891 C-41.45617129 107.22668174 -39.66848862 102.61544485 -37.87932205 98.00477982 C-34.6016183 89.557563 -31.33493248 81.10613214 -28.07421875 72.65234375 C-27.83501268 72.03219517 -27.59580662 71.41204659 -27.34935188 70.77310562 C-26.15895282 67.68683921 -24.96871078 64.60051227 -23.77853394 61.51416016 C-15.86802771 41.00336355 -7.94189059 20.49866355 0 0 Z M15 44 C12.29176421 50.95913245 9.5861242 57.91926989 6.88232422 64.88012695 C5.96137914 67.25015357 5.0398304 69.6199457 4.11767578 71.98950195 C2.79562784 75.38692376 1.47572237 78.78517097 0.15625 82.18359375 C-0.25935181 83.25024765 -0.67495361 84.31690155 -1.10314941 85.4158783 C-1.4835437 86.39681961 -1.86393799 87.37776093 -2.25585938 88.38842773 C-2.59339233 89.25668686 -2.93092529 90.12494598 -3.27868652 91.01951599 C-4.05703661 92.80531166 -4.05703661 92.80531166 -4 94 C9.2 94 22.4 94 36 94 C29.6790755 77.32856162 23.35403032 60.65884739 17 44 C16.34 44 15.68 44 15 44 Z " fill="#275A51" transform="translate(1185,128)"/>
<path d="M0 0 C1.56428238 3.12856476 1.28007086 5.52712131 1 9 C-3.20158559 19.88592631 -11.59099862 29.53272818 -19 38.4375 C-19.44923828 38.99195801 -19.89847656 39.54641602 -20.36132812 40.11767578 C-27.32431949 48.28278697 -36.98220746 53.31356998 -46.25 58.4375 C-48.28676101 59.57237362 -50.32322056 60.70778844 -52.359375 61.84375 C-53.33197266 62.38515625 -54.30457031 62.9265625 -55.30664062 63.484375 C-57.58175916 64.76464475 -59.83585687 66.06964618 -62.078125 67.40625 C-80.21302303 78.17125796 -99.75102478 83.13420765 -120.17041016 87.68603516 C-128.10635534 89.48221763 -135.8698301 91.61538567 -143.5949707 94.17163086 C-148.19857341 95.65180423 -152.09715384 96.40754137 -157 96 C-159.4375 94.5 -159.4375 94.5 -161 92 C-164.03514541 71.89216168 -147.86702655 42.61494499 -136.7265625 26.765625 C-134.87839681 24.4433945 -132.97375909 22.21509208 -131 20 C-130.36578125 19.17757812 -129.7315625 18.35515625 -129.078125 17.5078125 C-100.55121645 -16.91751699 -36.34122636 -27.53857375 0 0 Z " fill="#344926" transform="translate(255,52)"/>
<path d="M0 0 C9.9 0 19.8 0 30 0 C30.01458252 3.31015137 30.02916504 6.62030273 30.04418945 10.03076172 C30.09460441 20.98716333 30.16121186 31.94342385 30.23571491 42.89968681 C30.28037633 49.54022441 30.31964188 56.18065332 30.34643555 62.82128906 C30.37251042 69.23399423 30.41294307 75.64646507 30.46318626 82.05902481 C30.47982657 84.50130415 30.49135845 86.94362398 30.49761391 89.385952 C30.50728557 92.81598017 30.53538276 96.24541266 30.56762695 99.67529297 C30.56547432 101.1782618 30.56547432 101.1782618 30.5632782 102.71159363 C30.65443325 109.60170743 31.03754037 117.42805732 35.61354542 122.94550896 C40.23618657 127.33662029 45.07686141 128.72933902 51.375 129.3125 C58.72499919 128.67887938 64.9251026 126.55822096 70 121 C73.18103682 114.43464524 73.44251329 107.86841443 73.43237305 100.69702148 C73.4425647 99.60330734 73.45275635 98.5095932 73.46325684 97.38273621 C73.49326455 93.79546911 73.5026343 90.2084696 73.51171875 86.62109375 C73.52857445 84.12288026 73.54672588 81.6246752 73.56611633 79.1264801 C73.60868911 73.24066513 73.63826897 67.35489892 73.66143972 61.46897799 C73.69124035 54.10357664 73.7414192 46.73833692 73.79101562 39.37304688 C73.87694546 26.24874612 73.94279561 13.12445743 74 0 C84.23 0 94.46 0 105 0 C105.04539821 13.50980819 105.0820004 27.01956472 105.10362434 40.5294323 C105.11400891 46.80431861 105.12806947 53.07914948 105.15087891 59.35400391 C105.17279892 65.42298036 105.18460855 71.49190388 105.18975449 77.5609169 C105.19341616 79.86265011 105.20056515 82.16438082 105.21146011 84.46609116 C105.40762167 127.67291113 105.40762167 127.67291113 92 143 C91.24976563 143.92619141 91.24976563 143.92619141 90.484375 144.87109375 C83.39849976 152.90533108 71.60294356 158.20477923 61 159 C43.38728277 159.94353842 28.55962261 157.46883791 14.6875 145.75 C4.33609231 135.9243781 0.4133268 123.54008346 -0.09012032 109.48384094 C-0.12241859 106.59226732 -0.12373294 103.70228476 -0.11352539 100.81054688 C-0.11367142 99.71697876 -0.11381744 98.62341064 -0.1139679 97.4967041 C-0.11327462 93.90403213 -0.1055097 90.31141285 -0.09765625 86.71875 C-0.09578999 84.2191165 -0.09436707 81.71948263 -0.09336853 79.21984863 C-0.08994844 73.32688905 -0.08207746 67.43394874 -0.07201904 61.54099703 C-0.05970964 54.16795969 -0.05436646 46.79491999 -0.04882812 39.421875 C-0.03811968 26.28123865 -0.02053618 13.14062467 0 0 Z " fill="#2D6259" transform="translate(838,296)"/>
<path d="M0 0 C66.57142857 0 66.57142857 0 80.5 12.1875 C90.37660866 23.29868474 93.82194397 35.22722321 93 50 C91.88761351 61.39740257 86.80881077 71.34397353 78.41015625 79.09765625 C64.49051945 90.08446844 48.32206612 89.24686669 31 90 C31 111.45 31 132.9 31 155 C20.77 155 10.54 155 0 155 C0 103.85 0 52.7 0 0 Z M31 30 C31 39.9 31 49.8 31 60 C33.97 60.061875 36.94 60.12375 40 60.1875 C40.91910156 60.21481201 41.83820312 60.24212402 42.78515625 60.27026367 C48.55445551 60.32778349 52.75683761 59.45029294 58 57 C62.59514205 52.16920964 63.30418055 48.95304849 63.2109375 42.47265625 C62.93082948 39.18916785 62.18269183 37.47371741 60 35 C55.42083219 31.56562414 52.03961619 29.86598971 46.33203125 29.90234375 C45.1251062 29.90609009 45.1251062 29.90609009 43.89379883 29.90991211 C42.87697021 29.91901611 41.8601416 29.92812012 40.8125 29.9375 C37.574375 29.958125 34.33625 29.97875 31 30 Z " fill="#346C62" transform="translate(714,128)"/>
<path d="M0 0 C64.44444444 0 64.44444444 0 79.25 10.25 C88.70683855 19.70683855 92.83853039 31.59271023 93.1875 44.8125 C92.99287006 56.5433775 89.4781232 67.46123456 81.5 76.3125 C67.34221617 89.32896536 49.5411428 89.19386336 31 90 C31 111.45 31 132.9 31 155 C20.77 155 10.54 155 0 155 C0 103.85 0 52.7 0 0 Z M31 29 C31 39.23 31 49.46 31 60 C44.92769702 60.96661463 44.92769702 60.96661463 58 57 C62.64600074 52.23784924 63.28763784 48.91902323 63.22265625 42.4765625 C62.93674579 39.29643563 62.01360525 37.46107309 60 35 C59.566875 34.443125 59.13375 33.88625 58.6875 33.3125 C51.5290545 27.74482017 39.39508697 29 31 29 Z " fill="#2E645A" transform="translate(714,471)"/>
<path d="M0 0 C4.67957892 3.38949995 8.86105312 7.15824574 13.00390625 11.17578125 C13.60460937 11.70300781 14.2053125 12.23023437 14.82421875 12.7734375 C35.94832782 31.981639 43.18197738 64.82114784 44.84375 92.07421875 C47.2672561 147.21936896 47.2672561 147.21936896 36.00390625 163.17578125 C30.67969293 164.57250628 27.62027265 164.01087234 22.69140625 161.73828125 C6.51015263 154.71970437 -10.86086031 150.24385984 -27.96289062 146.078125 C-28.86072266 145.85511719 -29.75855469 145.63210938 -30.68359375 145.40234375 C-31.86501953 145.11738037 -31.86501953 145.11738037 -33.0703125 144.82666016 C-34.99609375 144.17578125 -34.99609375 144.17578125 -36.99609375 142.17578125 C-36.08859375 141.92828125 -35.18109375 141.68078125 -34.24609375 141.42578125 C-33.60800781 141.23628906 -32.96992187 141.04679688 -32.3125 140.8515625 C-30.62112351 140.35812551 -28.91865482 139.9022659 -27.2109375 139.46875 C-18.93147564 137.12913433 -13.90331893 133.34028976 -7.99609375 127.17578125 C-7.04089844 126.24958984 -7.04089844 126.24958984 -6.06640625 125.3046875 C8.75287528 109.99142992 11.83207613 85.91370432 12.31640625 65.55078125 C12.01196561 48.53792214 6.55107434 35.87870016 -5.1875 23.84765625 C-8.84994473 20.36349465 -12.55706038 17.58096093 -16.99609375 15.17578125 C-17.92035156 14.67111328 -17.92035156 14.67111328 -18.86328125 14.15625 C-22.960823 12.16211302 -26.48545756 11.64511817 -30.99609375 12.17578125 C-34.0090475 16.69521187 -32.5592489 20.69521616 -31.89453125 25.92578125 C-31.99609375 29.17578125 -31.99609375 29.17578125 -33.68359375 31.109375 C-37.88240833 33.04565267 -41.61463413 32.30244229 -45.99609375 31.17578125 C-52.24522271 28.42616451 -56.86705149 25.29782046 -59.99609375 19.17578125 C-61.79820506 13.76944733 -61.72893406 8.22002001 -59.80859375 2.86328125 C-55.47431866 -3.56340251 -49.52056468 -7.98272844 -42.14453125 -10.44140625 C-26.72534566 -13.18882477 -12.90349145 -8.40706007 0 0 Z " fill="#3A7268" transform="translate(572.99609375,114.82421875)"/>
<path d="M0 0 C16.63291841 14.29106492 36.28091149 35.2531814 42.3671875 56.9296875 C42.1171875 59.9921875 42.1171875 59.9921875 41.3671875 61.9296875 C31.65265235 61.72299526 25.20729156 54.16320979 18.75390625 47.5859375 C15.94421582 44.45894979 13.37206694 41.1935416 10.8046875 37.8671875 C-4.82868727 17.71673231 -24.92309151 9.92377992 -49.6328125 5.9296875 C-50.78716797 5.73246094 -50.78716797 5.73246094 -51.96484375 5.53125 C-66.37811212 3.49189654 -83.50788392 3.50446001 -96.1796875 11.35546875 C-98.96129256 14.36887423 -99.60152552 17.82272434 -99.71484375 21.83203125 C-99.05921727 29.21495554 -97.86829445 36.29726825 -96.25390625 43.51953125 C-95.47674455 47.78658889 -94.92965578 51.19060441 -96.58203125 55.27734375 C-99.85687549 57.91593254 -103.42993794 57.47527717 -107.4453125 57.3671875 C-108.29391846 57.35397461 -109.14252441 57.34076172 -110.0168457 57.32714844 C-121.58425887 57.00035458 -133.37549726 55.33373248 -142.3828125 47.5546875 C-148.93658265 39.90862233 -150.06521412 34.57166037 -149.97265625 24.66796875 C-149.08203001 14.8710801 -144.05755607 7.10869865 -137.6328125 -0.0703125 C-137.04886719 -0.74707031 -136.46492188 -1.42382812 -135.86328125 -2.12109375 C-100.76266894 -40.1775471 -36.06931801 -30.02262978 0 0 Z " fill="#96B674" transform="translate(433.6328125,26.0703125)"/>
<path d="M0 0 C1.051875 0.5775 2.10375 1.155 3.1875 1.75 C10.28778521 7.43022817 16.3188814 14.8559717 18 24 C18.80901053 36.75849387 18.33163967 46.2042474 9.75 56.3125 C3.34663802 63.01026943 -3.66883116 67.83448023 -13.171875 68.3359375 C-26.48338916 68.60338213 -34.88842777 66.85939413 -44.80078125 57.3671875 C-52.84809872 48.70524365 -54.59532086 39.62870964 -54.3203125 27.95703125 C-53.89263553 22.67365598 -52.54862544 18.61053422 -50 14 C-49.4225 12.948125 -48.845 11.89625 -48.25 10.8125 C-36.50133931 -3.87332587 -16.95925108 -9.37478754 0 0 Z " fill="#75992F" transform="translate(541,176)"/>
<path d="M0 0 C0.99 0 1.98 0 3 0 C3.18792114 0.89755005 3.18792114 0.89755005 3.37963867 1.81323242 C7.89150425 23.12028742 13.9076287 39.91094981 28.00952148 56.85107422 C38.16175351 69.12390365 49.55333242 83.20642492 48 100 C46.17549049 105.47352853 42.81346035 108.97341925 38 112 C26.05751999 117.35051081 13.69176768 118.16756641 0.8125 118.25 C-0.1971582 118.2593457 -1.20681641 118.26869141 -2.24707031 118.27832031 C-10.13813113 118.24474133 -17.94568774 117.82137819 -25 114 C-24.9239894 110.88356541 -24.62185225 108.70203846 -22.515625 106.32421875 C-21.61070312 105.48310547 -21.61070312 105.48310547 -20.6875 104.625 C-13.17416826 97.57355341 -11.22134475 88.82889559 -10.89453125 78.74609375 C-11.37207229 63.19948 -18.5022217 50.48837903 -26.03637695 37.2734375 C-26.54773193 36.37238281 -27.05908691 35.47132813 -27.5859375 34.54296875 C-28.0504834 33.73883545 -28.5150293 32.93470215 -28.99365234 32.10620117 C-30 30 -30 30 -30 27 C-25.22214227 29.14561507 -22.08547135 32.57204649 -18.4375 36.25 C-17.72875732 36.96438232 -17.02001465 37.67876465 -16.28979492 38.41479492 C-3.43471614 51.56378722 9 66.52154277 9 86 C12.76254239 82.60157461 13.75422816 80.52218313 14.23828125 75.5546875 C14.49545828 66.26924312 11.83855629 60.01200387 7.10961914 52.12402344 C0.12375637 40.45540118 -4.12180112 27.75467935 -4.3125 14.0625 C-4.34150391 13.37220703 -4.37050781 12.68191406 -4.40039062 11.97070312 C-4.46357641 6.84293384 -3.35665603 3.86469046 0 0 Z " fill="#476539" transform="translate(377,216)"/>
<path d="M0 0 C8.85244975 6.79374051 16.47723619 16.25069157 18.03515625 27.59375 C18.24500187 33.21396325 18.24500187 33.21396325 16.53515625 35.81640625 C13.73224306 37.70674305 11.99091027 37.61237409 8.6875 37.0625 C6.30859375 34.796875 6.30859375 34.796875 4.125 31.8125 C-1.01516101 24.88565201 -6.64751426 19.72051842 -15.375 18.125 C-25.8782754 17.29532951 -36.31762499 22.66105762 -44.3125 29.0625 C-48.51774899 33.66366302 -49.64907326 38.50429141 -49.609375 44.578125 C-49.18669881 48.11525729 -47.86723598 50.95302805 -46.28515625 54.1171875 C-45.3125 56.0625 -45.3125 56.0625 -44.3125 59.0625 C-53.19160613 59.78732499 -64.50638844 57.8704252 -71.625 52.1875 C-75.05469366 48.63437263 -76.28930731 45.54411802 -76.3359375 40.5546875 C-75.6939991 28.42543043 -70.03692405 19.4132068 -61.4375 11.125 C-43.99990366 -3.78370378 -21.02716139 -12.29890572 0 0 Z " fill="#304D31" transform="translate(486.3125,110.9375)"/>
<path d="M0 0 C36.97610294 0 36.97610294 0 45.328125 7.28125 C54.44752375 16.65633282 57.63204362 26.43105405 57.47045898 39.36450195 C57.05675773 49.84383061 53.59975324 58.59358686 46 66 C32.05692812 75.99691946 18.00866124 72 0 72 C0 48.24 0 24.48 0 0 Z M14 14 C14 28.52 14 43.04 14 58 C27.58836995 58.65602124 27.58836995 58.65602124 37.8125 52.625 C42.36193781 47.16567463 43.06506797 40.93438612 43 34 C41.95629002 27.43685074 39.80863671 22.58497919 35 18 C27.71278091 13.59730513 22.76940274 14 14 14 Z " fill="#376F65" transform="translate(714,38)"/>
<path d="M0 0 C0.33 -0.99 0.66 -1.98 1 -3 C5.62 -3 10.24 -3 15 -3 C15 14.49 15 31.98 15 50 C10.38 50 5.76 50 1 50 C0.67 49.01 0.34 48.02 0 47 C-0.928125 47.639375 -1.85625 48.27875 -2.8125 48.9375 C-8.29818969 52.04051639 -14.2424135 52.57483207 -20.42578125 51.62890625 C-28.17449152 49.47425625 -33.86774397 44.43857946 -38 37.625 C-41.48658467 29.90723801 -41.3699198 20.19456898 -39.23046875 12.08203125 C-38.31056087 9.89404318 -37.29479444 7.98505071 -36 6 C-35.443125 5.0925 -34.88625 4.185 -34.3125 3.25 C-24.1434776 -6.64418396 -11.86003874 -6.80854076 0 0 Z M-24 14 C-26.88586092 18.69326862 -26.63463745 23.65975801 -26 29 C-24.03531694 32.92936613 -21.89076902 35.88786825 -18 38 C-12.37567987 39.48566947 -9.04758812 38.85712535 -4 36 C0.72492723 30.9020522 1.3474015 27.5592492 1.28515625 20.765625 C0.80275051 16.08695014 -1.40611714 13.43518456 -4.8046875 10.375 C-11.53599484 6.15894985 -19.09910063 8.4707802 -24 14 Z " fill="#32695F" transform="translate(903,60)"/>
<path d="M0 0 C3.885102 3.33008743 6.65508812 6.16080924 7.625 11.25 C7.7078629 12.65399052 7.74286621 14.06134648 7.73852539 15.46777344 C7.73844986 16.28832214 7.73837433 17.10887085 7.73829651 17.95428467 C7.73313522 18.83046448 7.72797394 19.70664429 7.72265625 20.609375 C7.7212413 21.51375305 7.71982635 22.4181311 7.71836853 23.34991455 C7.71277911 26.23331027 7.70022853 29.11662782 7.6875 32 C7.68248363 33.95703013 7.67792096 35.91406147 7.67382812 37.87109375 C7.66281313 42.66409253 7.64555574 47.45703302 7.625 52.25 C3.005 52.25 -1.615 52.25 -6.375 52.25 C-6.38958252 51.25145996 -6.40416504 50.25291992 -6.41918945 49.22412109 C-6.47740068 45.50013394 -6.55463077 41.77673708 -6.63745117 38.05322266 C-6.67059363 36.4452476 -6.69865854 34.83715919 -6.72143555 33.22900391 C-6.75517967 30.90999295 -6.80750194 28.59201069 -6.86328125 26.2734375 C-6.86967117 25.56069672 -6.8760611 24.84795593 -6.88264465 24.11361694 C-7.01773902 19.47092093 -7.85836321 16.16758574 -10.375 12.25 C-13.9059683 10.94507693 -15.58898285 10.92096957 -19.0625 12.375 C-22.81219302 15.41529163 -24.22781834 18.02559155 -24.80737305 22.84692383 C-24.84843209 24.21659963 -24.87413925 25.58679791 -24.88671875 26.95703125 C-24.90466995 27.68242599 -24.92262115 28.40782074 -24.94111633 29.15519714 C-24.99502217 31.45757342 -25.02905001 33.75974479 -25.0625 36.0625 C-25.09569068 37.62958568 -25.13018196 39.1966444 -25.16601562 40.76367188 C-25.25317206 44.59247413 -25.31340292 48.42036106 -25.375 52.25 C-30.325 52.25 -35.275 52.25 -40.375 52.25 C-40.375 34.76 -40.375 17.27 -40.375 -0.75 C-35.425 -0.75 -30.475 -0.75 -25.375 -0.75 C-25.045 0.24 -24.715 1.23 -24.375 2.25 C-22.76625 1.2909375 -22.76625 1.2909375 -21.125 0.3125 C-14.34251235 -3.7309061 -7.00550005 -3.63248151 0 0 Z " fill="#346C62" transform="translate(845.375,57.75)"/>
<path d="M0 0 C2.4375 2.75 2.4375 2.75 4 5 C1.36 7.64 -1.28 10.28 -4 13 C-9 11 -9 11 -11 9.875 C-13.44288623 8.80623727 -15.36175261 8.8534307 -18 9 C-18 10.32 -18 11.64 -18 13 C-16.93265625 13.40798828 -16.93265625 13.40798828 -15.84375 13.82421875 C-9.12928763 16.60039069 -1.2610601 19.95204372 3 26 C5.25271887 31.95136893 5.50218577 37.09967403 3.10546875 43.0234375 C0.52190483 47.64281327 -2.84799984 49.57044062 -7.6875 51.375 C-14.56627822 52.72971158 -21.44598389 52.30860171 -27.5 48.625 C-29.9183631 46.95468989 -31.96676185 45.1200227 -34 43 C-32.34908222 38.70761377 -29.26245434 36.1206085 -26 33 C-23.65693823 34.17153088 -21.38756777 35.35947109 -19.125 36.6875 C-15.52814409 38.19817948 -13.71654471 37.97338076 -10 37 C-10 35.35 -10 33.7 -10 32 C-10.639375 31.773125 -11.27875 31.54625 -11.9375 31.3125 C-19.88266899 27.90742758 -25.9436207 24.19330151 -31 17 C-32.35358177 12.9392547 -32.82031176 9.24531048 -31.31640625 5.12890625 C-28.69100917 0.06330607 -25.18077252 -2.8513877 -19.75 -4.8125 C-12.1863993 -5.32820005 -6.20206791 -4.4654889 0 0 Z " fill="#31675E" transform="translate(960,60)"/>
<path d="M0 0 C1.28583984 -0.02126953 1.28583984 -0.02126953 2.59765625 -0.04296875 C4.9375 0.1875 4.9375 0.1875 7.9375 2.1875 C8.37890625 4.8671875 8.37890625 4.8671875 8.5 8.0625 C8.69354443 13.4287471 8.69354443 13.4287471 10.9375 18.1875 C13.9709467 19.95477858 13.9709467 19.95477858 16.9375 21.1875 C15.97645416 24.74336962 15.31032951 25.95551719 12.125 27.9375 C2.46011232 31.72765203 -7.44908221 30.82114303 -17.0625 27.1875 C-24.44314516 23.42620968 -24.44314516 23.42620968 -26.0625 20.1875 C-26.66829642 17.00706877 -26.54705794 14.98623905 -24.8515625 12.19140625 C-18.59720525 4.42484525 -9.96220698 0.07512977 0 0 Z " fill="#304D32" transform="translate(433.0625,179.8125)"/>
<path d="M0 0 C4.85282753 3.49855008 7.58147858 8.26490263 9 14 C9.31625646 16.91929039 9.41092481 19.81484846 9.4375 22.75 C9.4475708 23.4831543 9.4576416 24.21630859 9.46801758 24.97167969 C9.39541838 29.48003827 8.69352656 32.37052654 6 36 C4.98679687 35.86980469 3.97359375 35.73960938 2.9296875 35.60546875 C-4.30495855 34.52695082 -4.30495855 34.52695082 -11.19140625 36.08203125 C-12.51334856 37.33494263 -13.76322641 38.66294747 -15 40 C-17.25 40.1875 -17.25 40.1875 -19 39 C-22.58411001 31.83177998 -21.47896722 23.91223108 -19.046875 16.55859375 C-15.45781623 7.78682697 -10.81291895 -1.73779055 0 0 Z " fill="#304D32" transform="translate(511,69)"/>
<path d="M0 0 C3.55175795 3.11861673 4.7866383 6.12515857 5.1640625 10.87890625 C4.77294142 15.93554303 2.20887161 19.75754862 -1.25 23.3125 C-7.0989335 26.90161829 -12.14688989 28.42831938 -19 28 C-19.75 26.4375 -19.75 26.4375 -20 24 C-19.09664052 22.15474911 -18.05389286 20.48716223 -16.91015625 18.78125 C-15.69666144 16.73972654 -15.69666144 16.73972654 -16 13 C-21.61792436 11.59551891 -24.07845491 12.28355253 -29.078125 15.0546875 C-31.91636164 16.45073072 -33.91731587 16.64521296 -37 16 C-39.0625 14 -39.0625 14 -40 11 C-39.6123902 6.8052006 -38.09030145 3.95273045 -34.92578125 1.1875 C-24.55483185 -5.94359909 -10.99291014 -6.56132601 0 0 Z " fill="#43633C" transform="translate(449,386)"/>
<path d="M0 0 C4.95 0 9.9 0 15 0 C15 17.49 15 34.98 15 53 C10.05 53 5.1 53 0 53 C0 35.51 0 18.02 0 0 Z " fill="#366E64" transform="translate(780,57)"/>
<path d="M0 0 C0.1959375 0.61746094 0.391875 1.23492187 0.59375 1.87109375 C2.82292137 8.18387645 5.71317427 12.40762334 10.390625 17.1875 C12 19 12 19 12 21 C9.69 21 7.38 21 5 21 C4.90912109 22.28197266 4.90912109 22.28197266 4.81640625 23.58984375 C4.73261719 24.69457031 4.64882813 25.79929687 4.5625 26.9375 C4.48128906 28.03964844 4.40007812 29.14179688 4.31640625 30.27734375 C4 33 4 33 3 34 C-1.59594322 34.46738406 -4.65529902 34.74233855 -8.375 31.8125 C-12.89501716 26.96962447 -13.36301317 22.51740912 -13.375 16.0625 C-13.39949219 15.37220703 -13.42398437 14.68191406 -13.44921875 13.97070312 C-13.47849498 8.82296616 -12.21790822 5.96096338 -9 2 C-5.96215227 -0.15589193 -3.64540266 -0.06005606 0 0 Z " fill="#496638" transform="translate(302,387)"/>
<path d="M0 0 C4.7188561 2.62158672 6.4451416 5.9035197 8 11 C8.11724855 17.44867046 5.23289601 21.43913142 1 26 C-1.5625 28.0625 -1.5625 28.0625 -4 29 C-6.8125 28.6875 -6.8125 28.6875 -9 28 C-9 24 -9 24 -7.4375 22.0625 C-5.78460965 20.09400549 -5.78460965 20.09400549 -5.9375 17.625 C-7.03957261 14.90223238 -7.95191626 13.95053947 -10.0625 12 C-12.2021801 9.98435932 -12.92375353 9.29112288 -13.6875 6.375 C-11.80505498 -0.1279919 -5.89970569 -1.16079402 0 0 Z " fill="#42633D" transform="translate(460,418)"/>
<path d="M0 0 C3.07365786 1.80803404 4.43019732 2.86039464 6 6 C6.36105638 9.89940888 6.5400274 12.16918861 4.375 15.5 C2 17 2 17 -0.8125 16.8125 C-1.864375 16.544375 -2.91625 16.27625 -4 16 C-6.33257494 15.66140041 -8.66574212 15.3267961 -11 15 C-12.65 17.64 -14.3 20.28 -16 23 C-20 21 -20 21 -21 19 C-21.19394849 12.32263059 -19.251985 7.12450215 -15 2 C-10.3413446 -1.10577027 -5.45635205 -0.61853384 0 0 Z " fill="#46643A" transform="translate(393,379)"/>
<path d="M0 0 C2.91963173 1.98783437 4.61102978 3.4314697 5.48046875 6.9375 C5.75815509 10.90015906 5.23092162 12.66411401 2.9375 16 C-0.77807226 18.52975133 -2.5882483 18.7878128 -7 18 C-9.96593118 15.74331324 -11.58516544 14.01115924 -13 10.5625 C-13 7.03785492 -11.84564944 4.96622231 -10 2 C-6.24952518 -0.50031654 -4.44143734 -0.53603554 0 0 Z " fill="#376F65" transform="translate(791,35)"/>
<path d="M0 0 C0.33 0 0.66 0 1 0 C1.33 8.25 1.66 16.5 2 25 C3.65 23.02 5.3 21.04 7 19 C9.8125 17.625 9.8125 17.625 12 17 C11.13192399 18.06816445 10.25505217 19.12918085 9.375 20.1875 C8.88773438 20.77917969 8.40046875 21.37085938 7.8984375 21.98046875 C5.48592888 24.54686166 2.70590288 26.74508093 0 29 C0 19.43 0 9.86 0 0 Z " fill="#32685F" transform="translate(1005,325)"/>
<path d="M0 0 C0.66 0.33 1.32 0.66 2 1 C-3.28 6.28 -8.56 11.56 -14 17 C-14 11.79027084 -9.49956486 8.58109594 -6 5 C-4.05399166 3.22905099 -2.08162714 1.61326103 0 0 Z " fill="#387066" transform="translate(858,140)"/>
<path d="M0 0 C0.66 0.33 1.32 0.66 2 1 C-0.64 3.64 -3.28 6.28 -6 9 C-6 6 -6 6 -3.5625 3.375 C-2.716875 2.59125 -1.87125 1.8075 -1 1 C-0.67 0.67 -0.34 0.34 0 0 Z " fill="#3A7268" transform="translate(874,59)"/>
<path d="M0 0 C0.66 0.33 1.32 0.66 2 1 C-0.64 3.64 -3.28 6.28 -6 9 C-6 6 -6 6 -3.5625 3.375 C-2.716875 2.59125 -1.87125 1.8075 -1 1 C-0.67 0.67 -0.34 0.34 0 0 Z " fill="#387066" transform="translate(936,57)"/>
</svg>
